# xmcd CD database file generated by OrangeCD 5.2
#
# Track frame offsets:
#	150
#	30597
#	42119
#	68744
#	92708
#	114568
#	136431
#	161720
#	179969
#	200744
#	224407
#	249832
#	272175
#	312023
#
# Disc length: 4486 seconds
#
# Revision: 1
# Processed by: cddbd v1.5.1PL2 Copyright (c) Steve Scherf et al.
# Submitted via: OrangeCD 5.2
#
DISCID=d011840e
DTITLE=B.B. King - LA jazz festival session
DYEAR=1900
DGENRE=
TTITLE0=Everyday I Have Blues
TTITLE1=How Blue Can You Get
TTITLE2=Just A Litle Love
TTITLE3=Outside Help
TTITLE4=Guetto Woman
TTITLE5=Nobody Loves Me But My Mother
TTITLE6=Don't Ansver The Door
TTITLE7=Rock Me Baby
TTITLE8=Ain't That Just Like A Woman
TTITLE9=Hummingbird
TTITLE10=I Need My Baby
TTITLE11=Ain't Nobody Home
TTITLE12=The Thrill Is Gone
TTITLE13=Instrumental
EXTD=Bootleg record from LA "Sunset radio" station 
EXTT0=
EXTT1=
EXTT2=
EXTT3=
EXTT4=
EXTT5=
EXTT6=
EXTT7=
EXTT8=
EXTT9=
EXTT10=
EXTT11=
EXTT12=
EXTT13=
PLAYORDER=
